<svg aria-hidden="true" style="position:absolute;width:0;height:0" xmlns="http://www.w3.org/2000/svg" overflow="hidden">
  <defs>
    <symbol id="icon-lux-logo" viewBox="0 0 32 32">
      <path fill="var(--color1, #c5ac2d)" d="M20.509 25.551H2.974a2.038 2.038 0 0 1-2.036-2.036V9.487c0-1.123.913-2.036 2.036-2.036a.469.469 0 0 0 0-.938A2.977 2.977 0 0 0 0 9.487v14.028a2.977 2.977 0 0 0 2.974 2.974h17.535a.469.469 0 0 0 0-.938zM29.026 6.513H13.495a.469.469 0 0 0 0 .938h15.531c1.123 0 2.036.913 2.036 2.036v14.028a2.038 2.038 0 0 1-2.036 2.036h-.501a.469.469 0 0 0 0 .938h.501A2.977 2.977 0 0 0 32 23.515V9.487a2.977 2.977 0 0 0-2.974-2.974zM4.978 7.451a2.54 2.54 0 0 1 2.537 2.537.469.469 0 0 0 .938 0 2.54 2.54 0 0 1 2.537-2.537.469.469 0 0 0 0-.938 2.54 2.54 0 0 1-2.537-2.537.469.469 0 0 0-.938 0 2.54 2.54 0 0 1-2.537 2.537.469.469 0 0 0 0 .938zm3.006-1.734c.304.523.741.96 1.264 1.264-.523.304-.96.741-1.264 1.264A3.497 3.497 0 0 0 6.72 6.981c.523-.304.96-.741 1.264-1.264zM26.521 25.551a1.537 1.537 0 0 1-1.535-1.535.469.469 0 0 0-.938 0c0 .847-.689 1.535-1.535 1.535a.469.469 0 0 0 0 .938c.847 0 1.535.689 1.535 1.535a.469.469 0 0 0 .938 0c0-.847.689-1.535 1.535-1.535a.469.469 0 0 0 0-.938zm-2.004 1.026a2.495 2.495 0 0 0-.557-.557c.214-.155.402-.343.557-.557.155.214.343.402.557.557a2.495 2.495 0 0 0-.557.557z"/>
      <path fill="var(--color1, #c5ac2d)" d="M7.08 12.024a.469.469 0 0 0-.469.469v8.009c0 .228.164.423.389.462.033.006.08.014.949.014.422 0 1.038-.002 1.94-.007a.468.468 0 0 0-.003-.937h-.003c-.711.004-1.752.008-2.336.006v-7.547a.469.469 0 0 0-.469-.469zM19.886 20.892a.47.47 0 0 0 .654-.113l2.641-3.748 2.637 3.748a.467.467 0 0 0 .653.114.468.468 0 0 0 .114-.653l-2.83-4.023 2.433-3.454a.47.47 0 0 0-.766-.54l-2.24 3.179-2.236-3.179a.468.468 0 1 0-.767.539l2.429 3.453-2.834 4.023a.47.47 0 0 0 .113.653zM13.196 20.482a3.163 3.163 0 0 0 1.729.496h.005c.55 0 1.065-.119 1.53-.353 1.157-.583 1.769-1.489 1.769-2.622v-5.51a.469.469 0 0 0-.938 0v5.51c0 .776-.41 1.36-1.253 1.784a2.437 2.437 0 0 1-1.109.253h-.004a2.246 2.246 0 0 1-1.226-.349c-.73-.466-1.041-.97-1.041-1.683v-5.516a.469.469 0 0 0-.938 0v5.516c0 1.03.482 1.839 1.474 2.473z"/>
    </symbol>
  </defs>
</svg>