<svg aria-hidden="true" style="position:absolute;width:0;height:0;overflow:hidden" xmlns="http://www.w3.org/2000/svg">
  <defs>
    <symbol id="icon-car" viewBox="0 0 80 32">
      <path d="m78.856 8.012-9.057-1.293A45.577 45.577 0 0 0 64.667 4a44.903 44.903 0 0 0-18.576-4h-1.573a45.325 45.325 0 0 0-21.641 5.518l-4.571 2.493A31.498 31.498 0 0 0 3.06 12.144a6.085 6.085 0 0 0-3.059 5.27v7.916c0 .737.597 1.333 1.334 1.333h4.477a7.97 7.97 0 0 0 15.044 0h35.623a7.97 7.97 0 0 0 15.043 0h.479c.17 0 .338-.032.496-.095l4.319-1.733a5.042 5.042 0 0 0 3.186-4.705V9.331c0-.663-.488-1.225-1.144-1.32zM18.559 25.064A5.333 5.333 0 1 1 8.11 22.927a5.333 5.333 0 0 1 10.448 2.137zm24.108-1.066H21.334c0-4.418-3.581-7.999-8-7.999s-8 3.581-8 7.999H2.667v-6.584a3.41 3.41 0 0 1 1.716-2.955 28.833 28.833 0 0 1 14.284-3.793h24v13.332zm0-15.999H23.896l.257-.141a42.62 42.62 0 0 1 18.513-5.134v5.275zm2.666-5.333h.755a42.216 42.216 0 0 1 15.689 3.005l-2.328 2.328H45.334V2.666zm23.892 22.398a5.333 5.333 0 1 1-10.45-2.137 5.333 5.333 0 0 1 10.45 2.137zm8.108-13.065h-4v2.667h4v5.466a2.386 2.386 0 0 1-1.509 2.227L72 23.895c0-.123-.016-.244-.024-.367s-.011-.266-.024-.4c-.014-.133-.04-.267-.061-.4s-.037-.267-.064-.388c-.027-.121-.066-.256-.1-.383s-.061-.255-.101-.379c-.04-.124-.088-.243-.133-.364s-.087-.246-.133-.367c-.047-.12-.11-.229-.165-.342s-.111-.238-.173-.352c-.063-.114-.133-.212-.194-.318s-.133-.228-.209-.337c-.076-.11-.147-.196-.22-.295s-.156-.215-.241-.317c-.085-.103-.165-.183-.248-.267s-.175-.197-.266-.29c-.092-.093-.183-.167-.275-.25s-.191-.18-.292-.267c-.101-.086-.204-.153-.305-.229s-.203-.157-.309-.228c-.107-.07-.227-.133-.341-.208s-.208-.133-.316-.19c-.108-.057-.242-.118-.365-.176s-.219-.111-.332-.158c-.113-.048-.267-.099-.4-.147s-.22-.086-.334-.121c-.152-.047-.308-.08-.463-.119-.101-.024-.199-.056-.301-.077-.164-.034-.332-.052-.499-.077-.099-.013-.193-.035-.292-.044a8.007 8.007 0 0 0-8.813 7.958H45.336V10.665h14.666c.354 0 .693-.14.942-.391l3.458-3.457a43.047 43.047 0 0 1 4.227 2.312c.157.098.333.163.517.189l8.19 1.169v1.511z"/>
    </symbol>
    <symbol id="icon-card" viewBox="0 0 32 32">
      <path d="M18.5 9.497a.625.625 0 1 0 0 1.25.625.625 0 0 0 0-1.25zM14.71 21.704a.625.625 0 1 0-.885-.884.625.625 0 0 0 .885.884z"/>
      <path d="M7.199 31.815a.625.625 0 0 0 .882.005l3.03-2.984a1.889 1.889 0 0 0 .445-1.939l.652-.628a1.864 1.864 0 0 1 1.301-.526h8.309a5.601 5.601 0 0 0 3.924-1.593c.043-.042-.33.398 5.669-6.77a2.502 2.502 0 0 0-.297-3.523 2.507 2.507 0 0 0-3.507.279l-3.688 3.79a2.512 2.512 0 0 0-1.943-.93h-6.97a8.063 8.063 0 0 0-3.13-.625c-3.009 0-5.637 1.389-7.048 3.995a1.866 1.866 0 0 0-1.672.518L.183 23.865a.624.624 0 0 0-.001.881L7.2 31.815zm4.676-14.195c.957 0 1.883.193 2.752.572a.618.618 0 0 0 .251.053h7.098c.678 0 1.25.552 1.25 1.25 0 .689-.561 1.25-1.25 1.25h-5.099a.625.625 0 0 0 0 1.25h5.099a2.502 2.502 0 0 0 2.478-2.826c3.568-3.666 4.071-4.181 4.092-4.207a1.254 1.254 0 0 1 1.762-.149c.527.445.593 1.235.147 1.764l-5.606 6.7a4.35 4.35 0 0 1-3.029 1.218h-8.309c-.814 0-1.585.311-2.17.876l-.531.512-4.897-4.895c1.144-2.146 3.292-3.367 5.963-3.367zM4.04 21.767a.624.624 0 0 1 .774-.088c.096.058 5.441 5.416 5.474 5.46a.628.628 0 0 1-.057.811l-2.583 2.544-6.141-6.186 2.534-2.54zM9.75 13.246h15.001a1.877 1.877 0 0 0 1.875-1.875V1.874a1.877 1.877 0 0 0-1.875-1.875H9.75a1.877 1.877 0 0 0-1.875 1.875v9.497c0 1.034.841 1.875 1.875 1.875zm15.626-8.247H9.126v-1.25h16.25v1.25zm-.625 6.998H9.75a.625.625 0 0 1-.625-.625V6.248h16.251v5.124c0 .345-.28.625-.625.625zM9.75 1.25h15.001c.345 0 .625.28.625.625V2.5H9.126v-.625c0-.344.28-.625.625-.625z"/>
      <path d="M23.501 9.497h-2.5a.625.625 0 0 0 0 1.25h2.5a.625.625 0 0 0 0-1.25z"/>
    </symbol>
    <symbol id="icon-map" viewBox="0 0 47 32">
      <path d="M27.713 6.349c.002-.782-.225-1.546-.651-2.197s-1.033-1.159-1.744-1.459a3.844 3.844 0 0 0-4.244.85 3.963 3.963 0 0 0-1.067 2.022c-.151.766-.074 1.561.22 2.283s.793 1.34 1.433 1.774c.64.434 1.393.666 2.163.666 1.03 0 2.018-.415 2.748-1.153s1.14-1.741 1.143-2.786zm-3.891 2.776c-.54-.002-1.068-.166-1.517-.473s-.797-.74-1.003-1.248-.258-1.065-.152-1.603c.107-.538.368-1.032.751-1.419s.87-.651 1.4-.757 1.08-.051 1.579.16c.499.21.926.566 1.226 1.022s.46.993.46 1.541c-.002.737-.292 1.444-.807 1.964s-1.211.812-1.938.812zM11.173 16.107c-.531.001-1.05.162-1.491.463s-.784.727-.987 1.225a2.754 2.754 0 0 0 .587 2.97c.376.381.855.64 1.376.744.521.105 1.061.05 1.551-.156s.91-.556 1.205-1.004a2.754 2.754 0 0 0-.339-3.443 2.67 2.67 0 0 0-1.902-.798zm0 4.29c-.304-.001-.601-.094-.854-.267s-.449-.417-.564-.703a1.584 1.584 0 0 1 .338-1.702c.216-.218.49-.366.789-.426s.608-.029.889.09.521.319.69.576a1.58 1.58 0 0 1-.196 1.975c-.29.294-.683.458-1.092.457zM28.185 21.177c-.455.001-.9.139-1.278.396s-.672.623-.846 1.05a2.37 2.37 0 0 0 .502 2.545c.322.326.732.548 1.179.638s.909.043 1.329-.134c.42-.177.78-.477 1.032-.861s.388-.836.388-1.298c-.001-.62-.245-1.215-.678-1.653s-1.019-.684-1.63-.684zm0 3.51a1.15 1.15 0 0 1-1.064-.728 1.188 1.188 0 0 1 .253-1.276 1.138 1.138 0 0 1 1.259-.252c.211.089.391.239.518.432a1.183 1.183 0 0 1-.147 1.481 1.15 1.15 0 0 1-.82.343zM40.442 13.219c.455-.001.9-.139 1.278-.396s.672-.623.846-1.05c.173-.427.218-.897.129-1.35s-.309-.869-.631-1.195c-.322-.326-.732-.548-1.179-.638s-.909-.043-1.33.134c-.42.177-.78.477-1.032.861s-.388.836-.388 1.298c.001.62.245 1.215.678 1.653s1.019.684 1.63.684zm0-3.511a1.15 1.15 0 0 1 1.064.728 1.19 1.19 0 0 1-.254 1.277 1.138 1.138 0 0 1-1.259.252 1.16 1.16 0 0 1-.518-.432 1.183 1.183 0 0 1 .148-1.481c.218-.22.512-.343.819-.343z"/>
      <path d="m42.113 15.471 1.512-2.045c.582-.772.872-1.73.816-2.701-.136-2.117-1.845-3.776-3.89-3.776s-3.753 1.659-3.89 3.776c-.03.481.029.963.174 1.421l-9.454.176 1.459-1.975a6.542 6.542 0 0 0 1.306-4.315 6.602 6.602 0 0 0-1.87-4.208c-.569-.578-1.245-1.037-1.989-1.35a6.049 6.049 0 0 0-4.694 0 6.125 6.125 0 0 0-1.989 1.35 6.599 6.599 0 0 0-1.869 4.207c-.097 1.479.365 3.009 1.305 4.315l1.262 1.708-13.434.09c-.119.001-.235.039-.331.11s-.169.17-.207.284L.031 31.23a.581.581 0 0 0 .542.77h45.854a.56.56 0 0 0 .462-.238c.053-.073.089-.159.103-.249s.008-.182-.018-.269l-4.861-15.773zm-4.308-4.67c.085-1.321 1.135-2.688 2.746-2.688s2.661 1.367 2.746 2.69a2.914 2.914 0 0 1-.589 1.924l-2.157 2.919-2.153-2.913a2.997 2.997 0 0 1-.592-1.932zM37.39 13.3l.087.126 2.616 3.539a.574.574 0 0 0 .458.232.568.568 0 0 0 .458-.232l.256-.346.652 2.115-8.887.002-.644-5.342 5.004-.094zM19.962 9.654c-.778-1.08-1.162-2.339-1.083-3.546a5.438 5.438 0 0 1 1.537-3.463c.463-.47 1.012-.843 1.617-1.097a4.926 4.926 0 0 1 5.431 1.097 5.434 5.434 0 0 1 1.538 3.464 5.367 5.367 0 0 1-1.079 3.538l-3.983 5.389-3.979-5.383zM1.375 30.836 4.353 22l3.39-.011 3.105 4.201a.574.574 0 0 0 .458.232.568.568 0 0 0 .458-.232l2.474-3.348.03 7.993H1.373zm12.67-9.669-2.739 3.705-2.734-3.699c-.538-.747-.804-1.614-.749-2.445.108-1.675 1.44-3.407 3.483-3.407s3.376 1.732 3.483 3.409a3.696 3.696 0 0 1-.745 2.438zm9.034 3.57a.579.579 0 0 0-.17.415l.003 5.685h-7.495l-.036-9.638c.416-.78.608-1.662.554-2.547-.162-2.52-2.194-4.495-4.627-4.495s-4.465 1.974-4.627 4.494a4.764 4.764 0 0 0 .386 2.177l-2.32.007 2.538-7.53 13.876-.092 2.323 3.144a.574.574 0 0 0 .458.232.568.568 0 0 0 .458-.232l2.109-2.854 4.725-.088.72 5.973c.017.141.084.271.189.365s.24.146.38.146l9.753-.002 1.438 4.667-11.644.02c.102-.4.14-.814.113-1.226-.136-2.118-1.845-3.776-3.89-3.776s-3.754 1.659-3.89 3.775c-.026.413.014.829.119 1.229l-1.033-.016a.552.552 0 0 0-.411.168zm7.372.622-2.157 2.919-2.153-2.913a3.001 3.001 0 0 1-.593-1.931c.085-1.322 1.135-2.688 2.746-2.688s2.661 1.367 2.746 2.69a2.925 2.925 0 0 1-.589 1.924zm-6.394 5.477-.003-5.095.966.015c.062.102.128.202.199.301l2.616 3.539a.574.574 0 0 0 .458.232.568.568 0 0 0 .458-.232l2.615-3.538c.075-.101.145-.204.209-.31l12.495-.022 1.575 5.11h-21.59z"/>
    </symbol>
  </defs>
</svg>
