<svg aria-hidden="true" style="position: absolute; width: 0; height: 0; overflow: hidden;" version="1.1" xmlns="http://www.w3.org/2000/svg" xmlns:xlink="http://www.w3.org/1999/xlink">
<defs>
<symbol id="icon-play" viewBox="0 0 32 32">
<path fill="#fefefe" style="fill: var(--color1, #fefefe)" d="M16 0c-8.823 0-16 7.178-16 16s7.177 16 16 16c8.823 0 16-7.178 16-16s-7.177-16-16-16zM16 30.667c-8.087 0-14.667-6.579-14.667-14.667s6.579-14.667 14.667-14.667c8.087 0 14.667 6.579 14.667 14.667s-6.579 14.667-14.667 14.667z"></path>
<path fill="#fefefe" style="fill: var(--color1, #fefefe)" d="M22.361 15.439l-9.333-6c-0.204-0.133-0.469-0.141-0.68-0.025-0.215 0.117-0.348 0.341-0.348 0.585v12c0 0.244 0.133 0.468 0.348 0.585 0.099 0.054 0.21 0.081 0.319 0.081 0.125 0 0.251-0.035 0.361-0.106l9.333-6c0.19-0.122 0.306-0.334 0.306-0.561s-0.116-0.438-0.306-0.561zM13.333 20.779v-9.557l7.434 4.779-7.434 4.779z"></path>
</symbol>
</defs>
</svg>
